# xmcd
#
# Track frame offsets:
#	150
#	17700
#	36787
#	52962
#	73260
#	92712
#	108075
#	124857
#	142800
#	159000
#	172612
#	189262
#	205580
#	225455
#	248360
#
# Disc length: 3516 seconds
#
# Revision: 9
# Processed by: cddbd v1.5.2PL0 Copyright (c) Steve Scherf et al.
# Submitted via: EZCDAudioConverter 8.0.7.1
#
DISCID=a80dba0f
DTITLE=The Charlie Daniels Band - The Ultimate Charlie Daniels Band
DYEAR=2002
DGENRE=Country
TTITLE0=Still In Saigon
TTITLE1=Running With That Crowd [Album Version]
TTITLE2=American Farmer
TTITLE3=Cowboy Hat In Dallas
TTITLE4=Midnight Train
TTITLE5=Simple Man
TTITLE6=(What This World Needs Is) A Few More Rednecks
TTITLE7=Renegade
TTITLE8=Talk To Me Fiddle
TTITLE9=Layla
TTITLE10=Drinkin' My Baby Goodbye
TTITLE11=Honky Tonk Avenue
TTITLE12=Play Me Some Fiddle
TTITLE13=Funky Junky
TTITLE14=Boogie Woogie Fiddle Country Blues
EXTD=
EXTT0=
EXTT1=
EXTT2=
EXTT3=
EXTT4=
EXTT5=
EXTT6=
EXTT7=
EXTT8=
EXTT9=
EXTT10=
EXTT11=
EXTT12=
EXTT13=
EXTT14=
PLAYORDER=
